<svg t="1632618746728" class="icon" viewBox="0 0 1024 1024" version="1.1" xmlns="http://www.w3.org/2000/svg" p-id="3167" width="32" height="32"><path d="M512 14.04046698C285.51594444 14.04046698 101.91573591 198.69592179 101.91573591 426.58535144c0 113.88587391 45.92898631 216.99267454 120.09577941 291.68660449L512 1009.95953302l289.98751211-291.68757709a412.48652979 412.48652979 0 0 0 120.09675198-291.68660449C922.08426409 198.69592179 738.48308299 14.04046698 512 14.04046698z m0 595.7939926a182.78032593 182.78032593 0 0 1-182.31251628-183.36678999A182.72197129 182.72197129 0 0 1 512 243.21856145a182.78032593 182.78032593 0 0 1 182.31154372 183.36678999A182.72197129 182.72197129 0 0 1 512 609.89281421z" fill="#01ADA8" p-id="3168"></path></svg>